<?xml version="1.0" encoding="UTF-8" standalone="no"?>
<!-- Created with Inkscape (http://www.inkscape.org/) -->

<svg
   xmlns:dc="http://purl.org/dc/elements/1.1/"
   xmlns:cc="http://creativecommons.org/ns#"
   xmlns:rdf="http://www.w3.org/1999/02/22-rdf-syntax-ns#"
   xmlns:svg="http://www.w3.org/2000/svg"
   xmlns="http://www.w3.org/2000/svg"
   xmlns:sodipodi="http://sodipodi.sourceforge.net/DTD/sodipodi-0.dtd"
   xmlns:inkscape="http://www.inkscape.org/namespaces/inkscape"
   width="210mm"
   height="297mm"
   viewBox="0 0 210 297"
   version="1.1"
   id="svg8"
   inkscape:version="0.92.0 r15299"
   sodipodi:docname="facebook.svg">
  <defs
     id="defs2" />
  <sodipodi:namedview
     id="base"
     pagecolor="#ffffff"
     bordercolor="#666666"
     borderopacity="1.0"
     inkscape:pageopacity="0.0"
     inkscape:pageshadow="2"
     inkscape:zoom="0.35"
     inkscape:cx="400"
     inkscape:cy="560"
     inkscape:document-units="mm"
     inkscape:current-layer="layer1"
     showgrid="false"
     inkscape:window-width="1366"
     inkscape:window-height="715"
     inkscape:window-x="1272"
     inkscape:window-y="-8"
     inkscape:window-maximized="1" />
  <metadata
     id="metadata5">
    <rdf:RDF>
      <cc:Work
         rdf:about="">
        <dc:format>image/svg+xml</dc:format>
        <dc:type
           rdf:resource="http://purl.org/dc/dcmitype/StillImage" />
        <dc:title></dc:title>
      </cc:Work>
    </rdf:RDF>
  </metadata>
  <g
     inkscape:label="Layer 1"
     inkscape:groupmode="layer"
     id="layer1">
    <path
       d="m 105.07738,128.19583 c -5.556249,0 -10.054165,4.49792 -10.054165,10.05417 0,5.55625 4.497916,10.05416 10.054165,10.05416 5.55625,0 10.05416,-4.49791 10.05416,-10.05416 0,-5.55625 -4.49791,-10.05417 -10.05416,-10.05417 z m 4.89479,14.2875 c 0,0.29104 -0.13229,0.60854 -0.44979,0.60854 h -2.46062 v -3.70416 h 1.27 l 0.1852,-1.5875 h -1.4552 v -0.9525 c 0,-0.42334 0.10583,-0.635 0.71437,-0.635 h 0.87313 v -1.37584 c -0.26459,-0.0265 -0.68792,-0.0529 -1.21709,-0.0529 -1.11125,0 -1.95791,0.68791 -1.95791,1.93145 v 1.0848 h -1.32292 v 1.5875 h 1.32292 v 3.70416 h -4.5773 c -0.29104,0 -0.44979,-0.3175 -0.44979,-0.60854 v -8.65187 c 0,-0.29105 0.15875,-0.52917 0.44979,-0.52917 h 8.65188 c 0.29104,0 0.44979,0.23812 0.44979,0.52917 v 8.65187 z"
       id="path83"
       inkscape:connector-curvature="0"
       style="fill:#ffffff;stroke-width:0.26458332" />
  </g>
</svg>
